<svg width="20" height="20" viewBox="0 0 20 20" fill="none" xmlns="http://www.w3.org/2000/svg">
<g clip-path="url(#clip0_276_5)">
<path d="M17.3001 3.71002C16.8411 3.24601 16.2944 2.87797 15.6918 2.62731C15.0892 2.37666 14.4427 2.2484 13.7901 2.25002C13.1374 2.2484 12.491 2.37666 11.8883 2.62731C11.2857 2.87797 10.739 3.24601 10.2801 3.71002L10.0001 4.00002L9.72006 3.72001C8.79177 2.79182 7.53279 2.27037 6.22006 2.27037C4.90732 2.27037 3.64835 2.79182 2.72006 3.72001C1.80392 4.65466 1.29077 5.91125 1.29077 7.22002C1.29077 8.52878 1.80392 9.78537 2.72006 10.72L9.49006 17.51C9.63068 17.6505 9.82131 17.7294 10.0201 17.7294C10.2188 17.7294 10.4094 17.6505 10.5501 17.51L17.3201 10.72C18.2365 9.78231 18.748 8.52211 18.7443 7.21092C18.7405 5.89973 18.2219 4.64248 17.3001 3.71002Z" fill="white"/>
</g>
<defs>
<clipPath id="clip0_276_5">
<rect width="20" height="20" fill="white"/>
</clipPath>
</defs>
</svg>
